<svg width="759" height="507" viewBox="0 0 759 507" fill="none" xmlns="http://www.w3.org/2000/svg">
<g filter="url(#filter0_f_53_2020)">
<mask id="mask0_53_2020" style="mask-type:luminance" maskUnits="userSpaceOnUse" x="2" y="5" width="750" height="500">
<path d="M752 4.99994H2V505H752V4.99994Z" fill="white"/>
</mask>
<g mask="url(#mask0_53_2020)">
<g opacity="0.74">
<path d="M361.44 327.803C359 327.246 356.564 327.32 354.255 327.888C353.498 323.773 351.535 320.157 347.588 318.547C343.356 316.821 338.54 318.323 334.129 320.811C333.567 317.289 332.458 313.897 330.358 310.854C326.351 305.049 319.484 301.53 312.389 303.226C301.49 305.833 295.364 316.388 294.263 327.065C289.346 326.411 284.195 327.713 280.393 331.266C274.912 336.388 273.742 346.74 276.596 353.581C280.337 362.546 302.393 359.396 310.014 359.279C323.772 359.067 372.138 363.202 372.534 342.335C372.664 335.564 368.111 329.326 361.44 327.803Z" fill="#F9E0A0"/>
<path d="M560.615 164.376C558.175 163.819 555.739 163.893 553.43 164.461C552.673 160.346 550.71 156.73 546.763 155.12C542.531 153.394 537.715 154.896 533.304 157.384C532.742 153.862 531.633 150.47 529.533 147.427C525.526 141.622 518.659 138.103 511.564 139.799C500.665 142.406 494.539 152.961 493.438 163.638C488.521 162.984 483.37 164.286 479.568 167.839C474.087 172.961 472.917 183.313 475.771 190.154C479.512 199.119 501.568 195.969 509.189 195.851C522.947 195.639 571.313 199.774 571.709 178.908C571.839 172.137 567.286 165.899 560.615 164.376Z" fill="#F9E0A0"/>
<path d="M190.114 150.317C191.612 165.661 226.991 159.845 237.135 159.213C242.754 158.863 259.179 159.919 261.416 153.103C263.122 147.902 261.662 140.345 257.33 136.887C254.325 134.488 250.457 133.824 246.873 134.588C245.445 126.788 240.324 119.366 232.146 118.071C226.823 117.228 221.969 120.213 219.354 124.717C217.984 127.078 217.363 129.64 217.153 132.265C213.76 130.685 210.127 129.855 207.111 131.369C204.297 132.781 203.061 135.556 202.741 138.63C201.007 138.344 199.209 138.429 197.445 138.979C192.62 140.483 189.628 145.338 190.114 150.317Z" fill="#F9E0A0"/>
<path d="M454.134 63.7789C455.632 79.1229 491.011 73.3069 501.155 72.6749C506.774 72.3249 523.199 73.3819 525.436 66.5649C527.142 61.3639 525.682 53.8069 521.35 50.3489C518.345 47.9509 514.476 47.2859 510.893 48.0499C509.465 40.2499 504.344 32.8279 496.166 31.5329C490.843 30.6899 485.989 33.6749 483.374 38.1789C482.004 40.5399 481.383 43.1019 481.173 45.7269C477.78 44.1469 474.147 43.3169 471.13 44.8309C468.316 46.2429 467.08 49.0179 466.76 52.0919C465.026 51.8059 463.228 51.8909 461.464 52.4409C456.64 53.9459 453.648 58.8009 454.134 63.7789Z" fill="#F9E0A0"/>
<path d="M51.639 296.385C53.137 311.729 88.516 305.913 98.66 305.281C104.279 304.931 120.704 305.988 122.941 299.171C124.648 293.97 123.187 286.413 118.855 282.955C115.85 280.557 111.981 279.892 108.398 280.656C106.97 272.856 101.849 265.434 93.671 264.139C88.348 263.296 83.494 266.281 80.879 270.785C79.509 273.146 78.888 275.708 78.678 278.333C75.285 276.753 71.652 275.923 68.635 277.437C65.821 278.849 64.585 281.624 64.265 284.698C62.531 284.412 60.733 284.497 58.969 285.047C54.145 286.552 51.153 291.406 51.639 296.385Z" fill="#F9E0A0"/>
<path d="M534.048 405.274C535.449 419.616 568.518 414.18 578 413.589C583.252 413.262 598.605 414.249 600.696 407.878C602.291 403.017 600.926 395.953 596.876 392.721C594.067 390.479 590.451 389.858 587.102 390.572C585.767 383.281 580.98 376.344 573.336 375.133C568.36 374.345 563.824 377.135 561.379 381.346C560.098 383.553 559.518 385.947 559.322 388.402C556.151 386.925 552.755 386.149 549.935 387.564C547.305 388.884 546.15 391.478 545.851 394.351C544.231 394.084 542.55 394.163 540.9 394.678C536.391 396.082 533.594 400.62 534.048 405.274Z" fill="#F9E0A0"/>
<path d="M208.631 455.809C210.129 471.153 245.508 465.337 255.652 464.705C261.271 464.355 277.696 465.411 279.933 458.595C281.64 453.394 280.179 445.837 275.847 442.379C272.842 439.981 268.973 439.316 265.39 440.08C263.962 432.28 258.841 424.858 250.663 423.563C245.34 422.72 240.486 425.705 237.871 430.21C236.501 432.571 235.88 435.133 235.67 437.758C232.277 436.178 228.644 435.348 225.627 436.862C222.814 438.274 221.577 441.049 221.258 444.123C219.524 443.837 217.726 443.922 215.962 444.472C211.136 445.976 208.144 450.831 208.631 455.809Z" fill="#F9E0A0"/>
<path d="M546.556 509.812C548.054 525.156 583.433 519.34 593.577 518.708C599.196 518.358 615.621 519.414 617.858 512.598C619.565 507.397 618.104 499.84 613.772 496.382C610.767 493.984 606.898 493.319 603.315 494.083C601.887 486.283 596.766 478.861 588.588 477.566C583.265 476.723 578.411 479.708 575.796 484.212C574.426 486.573 573.806 489.135 573.595 491.76C570.202 490.18 566.569 489.35 563.552 490.864C560.739 492.276 559.502 495.051 559.182 498.125C557.448 497.839 555.65 497.924 553.886 498.474C549.062 499.978 546.07 504.833 546.556 509.812Z" fill="#F9E0A0"/>
<path d="M733.35 227.004C730.91 226.447 728.474 226.521 726.165 227.089C725.408 222.974 723.445 219.358 719.498 217.748C715.266 216.022 710.45 217.524 706.039 220.012C705.477 216.49 704.368 213.098 702.268 210.055C698.261 204.25 691.394 200.731 684.299 202.427C673.4 205.034 667.274 215.589 666.173 226.266C661.256 225.612 656.105 226.914 652.303 230.467C646.822 235.589 645.652 245.941 648.506 252.782C652.247 261.747 674.303 258.597 681.924 258.479C695.682 258.267 744.048 262.402 744.444 241.536C744.574 234.765 740.021 228.527 733.35 227.004Z" fill="#F9E0A0"/>
<path d="M298.499 11.5859C296.059 11.0289 293.623 11.1029 291.314 11.6709C290.557 7.55594 288.594 3.93994 284.647 2.32994C280.415 0.603944 275.599 2.10594 271.188 4.59394C270.626 1.07194 269.517 -2.32006 267.417 -5.36306C263.41 -11.1681 256.543 -14.6871 249.448 -12.9911C238.549 -10.3841 232.423 0.170944 231.322 10.8479C226.405 10.1939 221.254 11.4959 217.452 15.0489C211.972 20.1709 210.801 30.5229 213.655 37.3639C217.396 46.3289 239.452 43.1789 247.073 43.0609C260.83 42.8489 309.197 46.9839 309.593 26.1179C309.724 19.3469 305.171 13.1089 298.499 11.5859Z" fill="#F9E0A0"/>
<path d="M781.232 412.006C778.792 411.449 776.356 411.523 774.047 412.091C773.29 407.976 771.327 404.36 767.38 402.75C763.148 401.024 758.332 402.526 753.921 405.014C753.359 401.492 752.25 398.1 750.15 395.057C746.143 389.252 739.276 385.733 732.181 387.429C721.282 390.036 715.156 400.591 714.055 411.268C709.138 410.614 703.987 411.916 700.185 415.469C694.704 420.591 693.534 430.943 696.388 437.784C700.129 446.749 722.185 443.599 729.806 443.482C743.564 443.269 791.93 447.405 792.326 426.538C792.457 419.767 787.904 413.53 781.232 412.006Z" fill="#F9E0A0"/>
</g>
</g>
<mask id="mask1_53_2020" style="mask-type:luminance" maskUnits="userSpaceOnUse" x="7" y="-1" width="750" height="500">
<path d="M7 498.868H757V-9.15527e-05H7V498.868Z" fill="white"/>
</mask>
<g mask="url(#mask1_53_2020)">
<path d="M753.199 369.136C752.787 358.377 751.498 347.651 749.348 337.1C747.516 328.11 744.742 318.714 737.887 312.616C734.717 309.796 730.648 307.808 726.406 307.808C719.81 307.808 713.964 312.648 710.939 318.509C707.914 324.37 707.204 331.122 706.776 337.704C705.553 356.528 706.217 375.417 706.882 394.269C706.443 386.255 703.1 380.279 698.529 373.682C694.32 367.609 689.509 361.8 683.359 357.704C677.21 353.608 669.543 351.367 662.318 352.914C659.998 353.411 657.741 354.297 655.823 355.693C650.847 359.314 648.835 365.77 648.11 371.881C645.64 392.686 654.424 412.966 658.21 433.573C651.719 428.349 642.551 426.341 634.226 426.001C625.901 425.661 617.147 429.397 612.888 436.558C608.506 443.925 609.531 453.51 613.246 461.235C616.961 468.96 623.008 475.266 628.79 481.594C634.57 487.923 640.305 494.618 643.16 502.7L758.74 501.559L753.199 369.136Z" fill="#FED562"/>
<path d="M716.112 451.561C712.544 452.368 708.546 451.155 706.049 448.474C705.438 447.818 705.476 446.791 706.13 446.181L706.131 446.181C706.787 445.57 707.812 445.608 708.422 446.262L708.422 446.263C710.196 448.168 713.097 449.012 715.608 448.345L715.609 448.345C718.126 447.683 720.237 445.53 720.846 443L720.847 443C721.058 442.131 721.933 441.594 722.805 441.804L722.805 441.805C723.676 442.015 724.211 442.891 724.001 443.761C723.118 447.428 720.083 450.523 716.436 451.482C716.326 451.511 716.217 451.537 716.112 451.561Z" fill="#76AF73" stroke="#76AF73"/>
<circle cx="739.5" cy="426.368" r="4.5" transform="rotate(-180 739.5 426.368)" fill="#76AF73"/>
<circle cx="684.5" cy="437.368" r="4.5" transform="rotate(-180 684.5 437.368)" fill="#76AF73"/>
<path d="M732.599 375.453C732.626 375.453 732.653 375.452 732.68 375.451C733.505 375.407 734.138 374.703 734.095 373.878L731.927 332.979C731.883 332.153 731.173 331.528 730.354 331.564C729.529 331.608 728.895 332.312 728.939 333.137L731.107 374.036C731.148 374.835 731.809 375.453 732.599 375.453Z" fill="#76AF73"/>
<path d="M687.536 406.327C687.685 406.327 687.837 406.304 687.987 406.257C688.775 406.008 689.212 405.168 688.963 404.38C684.835 391.309 678.814 378.73 671.066 366.991C670.611 366.301 669.682 366.11 668.993 366.567C668.303 367.022 668.113 367.95 668.569 368.639C676.164 380.146 682.066 392.474 686.11 405.281C686.312 405.919 686.901 406.327 687.536 406.327Z" fill="#76AF73"/>
<path d="M677.677 501.76C677.799 501.76 677.924 501.745 678.048 501.714C678.849 501.51 679.332 500.695 679.128 499.894C672.931 475.584 654.498 454.984 631.023 446.133C630.25 445.84 629.387 446.232 629.095 447.005C628.803 447.779 629.194 448.641 629.967 448.933C652.542 457.445 670.268 477.256 676.228 500.634C676.4 501.31 677.009 501.76 677.677 501.76Z" fill="#76AF73"/>
<path d="M109.495 507.368L-8.04297 506.208L-8.55859 506.203L-8.53711 505.687L-2.94824 372.109C-2.53414 361.292 -1.22871 350.427 0.933594 339.815C2.73013 331.002 5.56094 320.979 12.9072 314.443C16.6724 311.094 21.1293 309.227 25.4658 309.226C32.1496 309.226 38.7646 313.809 42.374 320.806C45.604 327.066 46.3061 334.369 46.7129 340.639C47.6473 355.026 47.478 369.581 47.0566 383.889C48.4022 381.231 50.0724 378.592 52.0088 375.798C57.345 368.099 62.1582 363.027 67.6123 359.394C74.6649 354.697 82.7837 352.846 89.8916 354.368C92.4502 354.916 94.7159 355.851 96.625 357.156L97.0029 357.422C101.628 360.787 104.413 366.653 105.372 374.73C107.118 389.436 103.323 404.019 99.6855 418.015C98.4054 422.942 97.0982 427.989 96.0322 433.015C102.563 429.156 110.312 427.843 116.338 427.482L117.579 427.42C127.071 427.041 136.029 431.459 140.377 438.768C144.661 445.97 144.512 455.774 140.087 464.976C136.534 472.365 130.916 478.487 125.544 484.346L124.279 485.726L123.224 486.887C117.952 492.718 112.817 498.98 110.238 506.278L109.972 507.034L109.853 507.372L109.495 507.368ZM107.592 504.106C110.671 496.201 116.359 489.59 121.887 483.54L121.888 483.539L123.154 482.155C128.435 476.397 133.832 470.506 137.166 463.571C141.16 455.266 141.276 446.621 137.592 440.428C134.029 434.438 126.721 430.641 118.741 430.641C118.401 430.641 118.058 430.647 117.716 430.662H117.715C110.906 430.94 101.446 432.431 94.6807 437.877L92.3281 439.77L91.2793 440.614L91.5225 439.291L92.0684 436.319C93.2482 429.901 94.9287 423.434 96.5479 417.199C100.142 403.369 103.822 389.179 102.153 375.113C101.287 367.823 98.8798 362.799 95.0967 360.046C93.4962 358.881 91.5219 358.035 89.2168 357.541C83.0058 356.211 75.7852 357.852 69.4131 362.095C64.6627 365.259 60.3733 369.66 55.6318 376.291L54.6768 377.647C49.9621 384.45 47.0107 390.087 46.6113 397.398L46.585 397.892L46.0898 397.871L43.8477 397.769L43.3535 397.747L43.3701 397.253C44.0233 378.732 44.6976 359.608 43.4785 340.849C43.0683 334.523 42.4187 327.965 39.4932 322.294C36.3918 316.284 30.8616 312.471 25.4697 312.471H25.4678C21.9724 312.471 18.2734 314.015 15.0654 316.869L14.46 317.428C8.31695 323.305 5.78268 332.278 4.11523 340.464C1.98864 350.903 0.70286 361.594 0.295898 372.238V372.24L-5.1748 502.994L107.592 504.106Z" fill="#76AF73" stroke="#76AF73"/>
<path d="M36.9911 457.235L36.9922 457.234C33.3266 456.346 30.2333 453.309 29.2791 449.661C29.0521 448.793 29.5709 447.908 30.4363 447.681L30.4372 447.681C31.3026 447.456 32.1907 447.971 32.4179 448.839C33.0755 451.356 35.2275 453.468 37.7571 454.081L37.7581 454.082C40.2798 454.7 43.163 453.801 44.9012 451.864C45.4994 451.195 46.5267 451.138 47.1926 451.738L47.1924 451.739C47.8584 452.337 47.9142 453.361 47.3168 454.027L47.0833 454.279C44.624 456.835 40.7859 458.022 37.3153 457.307C37.2098 457.285 37.1009 457.262 36.9911 457.235Z" fill="#76AF73" stroke="#76AF73"/>
<circle cx="73.5" cy="442.368" r="4.5" transform="rotate(-180 73.5 442.368)" fill="#76AF73"/>
<circle cx="17.5" cy="425.368" r="4.5" transform="rotate(-180 17.5 425.368)" fill="#76AF73"/>
<path d="M15.0242 378.493C15.8142 378.493 16.4742 377.874 16.5162 377.076L18.6842 336.177C18.7282 335.352 18.0952 334.648 17.2692 334.604C16.4512 334.559 15.7402 335.193 15.6962 336.019L13.5282 376.918C13.4842 377.743 14.1182 378.447 14.9422 378.491C14.9702 378.492 14.9972 378.493 15.0242 378.493Z" fill="#76AF73"/>
<path d="M64.3363 409.366C64.9713 409.366 65.5602 408.958 65.7622 408.32C69.8062 395.514 75.7072 383.186 83.3032 371.678C83.7582 370.988 83.5682 370.061 82.8792 369.606C82.1892 369.15 81.2622 369.341 80.8062 370.03C73.0582 381.769 67.0363 394.349 62.9093 407.419C62.6603 408.207 63.0983 409.047 63.8853 409.296C64.0343 409.343 64.1863 409.366 64.3363 409.366Z" fill="#76AF73"/>
<path d="M74.1953 504.8C74.8633 504.8 75.4712 504.35 75.6442 503.673C81.6042 480.295 99.3302 460.484 121.904 451.973C122.678 451.681 123.068 450.819 122.776 450.045C122.485 449.272 121.621 448.882 120.848 449.173C97.3742 458.023 78.9412 478.623 72.7432 502.933C72.5392 503.734 73.0232 504.548 73.8242 504.753C73.9492 504.785 74.0733 504.8 74.1953 504.8Z" fill="#76AF73"/>
</g>
<mask id="mask2_53_2020" style="mask-type:luminance" maskUnits="userSpaceOnUse" x="2" y="5" width="750" height="499">
<path d="M752 4.99994H2V503.868H752V4.99994Z" fill="white"/>
</mask>
<g mask="url(#mask2_53_2020)">
<path d="M5.80101 134.732C6.21301 145.491 7.50201 156.217 9.65201 166.768C11.484 175.758 14.258 185.154 21.113 191.252C24.283 194.072 28.352 196.06 32.594 196.06C39.19 196.06 45.036 191.22 48.061 185.359C51.086 179.498 51.796 172.746 52.224 166.164C53.447 147.34 52.783 128.451 52.118 109.599C52.557 117.613 55.9 123.589 60.471 130.186C64.68 136.259 69.491 142.068 75.641 146.164C81.79 150.26 89.457 152.501 96.682 150.954C99.002 150.457 101.259 149.571 103.177 148.175C108.153 144.554 110.165 138.098 110.89 131.987C113.36 111.182 104.576 90.902 100.79 70.295C107.281 75.519 116.449 77.527 124.774 77.867C133.099 78.207 141.853 74.471 146.112 67.31C150.494 59.943 149.469 50.358 145.754 42.633C142.039 34.908 135.992 28.602 130.21 22.274C124.43 15.945 118.695 9.24997 115.84 1.16797L0.26001 2.30897L5.80101 134.732Z" fill="#FED562"/>
<path d="M42.8878 52.3068C46.4557 51.4996 50.4535 52.7134 52.9512 55.3944C53.5622 56.0499 53.5242 57.0766 52.8701 57.6866L52.8692 57.6868C52.2129 58.2975 51.1881 58.2594 50.5779 57.6055L50.5777 57.6046C48.8039 55.7004 45.9031 54.8562 43.3923 55.5228L43.3913 55.523C40.874 56.1846 38.7627 58.3379 38.1536 60.8674L38.1526 60.8677C37.9421 61.7373 37.0666 62.2743 36.1954 62.0635L36.1952 62.0625C35.3245 61.8527 34.7886 60.9774 34.9987 60.1065C35.8824 56.4397 38.9171 53.3449 42.5643 52.386C42.6738 52.3568 42.7827 52.3306 42.8878 52.3068Z" fill="#76AF73" stroke="#76AF73"/>
<circle cx="19.5" cy="77.4999" r="4.5" fill="#76AF73"/>
<circle cx="74.5" cy="66.4999" r="4.5" fill="#76AF73"/>
<path d="M26.401 128.415C26.374 128.415 26.347 128.416 26.32 128.417C25.495 128.461 24.862 129.165 24.905 129.99L27.073 170.889C27.117 171.715 27.827 172.34 28.646 172.304C29.471 172.26 30.105 171.556 30.061 170.731L27.893 129.832C27.852 129.033 27.191 128.415 26.401 128.415Z" fill="#76AF73"/>
<path d="M71.464 97.541C71.315 97.541 71.163 97.564 71.013 97.611C70.225 97.86 69.788 98.7 70.037 99.488C74.165 112.559 80.186 125.138 87.934 136.877C88.389 137.567 89.318 137.758 90.007 137.301C90.697 136.846 90.887 135.918 90.431 135.229C82.836 123.722 76.934 111.394 72.89 98.587C72.688 97.949 72.099 97.541 71.464 97.541Z" fill="#76AF73"/>
<path d="M81.323 2.10797C81.201 2.10797 81.076 2.12297 80.952 2.15397C80.151 2.35797 79.668 3.17297 79.872 3.97397C86.069 28.284 104.502 48.884 127.977 57.735C128.75 58.028 129.613 57.636 129.905 56.863C130.197 56.089 129.806 55.227 129.033 54.935C106.458 46.423 88.732 26.612 82.772 3.23397C82.6 2.55797 81.991 2.10797 81.323 2.10797Z" fill="#76AF73"/>
<path d="M649.505 -3.50012L767.043 -2.33997L767.559 -2.33508L767.537 -1.81946L761.948 131.759C761.534 142.576 760.229 153.441 758.066 164.053C756.27 172.866 753.439 182.889 746.093 189.425C742.328 192.774 737.871 194.641 733.534 194.641C726.85 194.641 720.235 190.059 716.626 183.062C713.396 176.802 712.694 169.499 712.287 163.229C711.353 148.842 711.522 134.287 711.943 119.979C710.598 122.637 708.928 125.276 706.991 128.07C701.655 135.769 696.842 140.841 691.388 144.474C684.335 149.171 676.216 151.022 669.108 149.5C666.55 148.952 664.284 148.017 662.375 146.712L661.997 146.446C657.372 143.081 654.587 137.215 653.628 129.138C651.882 114.432 655.677 99.849 659.314 85.8534C660.595 80.9262 661.902 75.8785 662.968 70.8534C656.437 74.7117 648.688 76.0247 642.662 76.3856L641.421 76.4481C631.929 76.8273 622.971 72.4085 618.623 65.0995C614.339 57.8979 614.488 48.094 618.913 38.8915C622.466 31.5027 628.084 25.3805 633.456 19.5223L634.721 18.1415L635.776 16.9813C641.048 11.1499 646.183 4.88792 648.762 -2.41028L649.028 -3.16614L649.147 -3.50403L649.505 -3.50012ZM651.408 -0.238403C648.329 7.66705 642.641 14.2783 637.113 20.328L637.112 20.329L635.846 21.7128C630.565 27.4714 625.168 33.362 621.834 40.2968C617.84 48.6018 617.724 57.2469 621.408 63.4403C624.971 69.4295 632.279 73.2274 640.259 73.2274C640.599 73.2274 640.942 73.2206 641.284 73.2059H641.285C648.094 72.9281 657.554 71.4365 664.319 65.9911L666.672 64.0975L667.721 63.2538L667.478 64.577L666.932 67.5487C665.752 73.9674 664.071 80.4341 662.452 86.6688C658.858 100.499 655.178 114.689 656.847 128.755C657.713 136.045 660.12 141.068 663.903 143.822C665.504 144.986 667.478 145.833 669.783 146.327C675.994 147.657 683.215 146.016 689.587 141.773C694.337 138.608 698.627 134.208 703.368 127.577L704.323 126.221C709.038 119.418 711.989 113.781 712.389 106.47L712.415 105.975L712.91 105.997L715.152 106.099L715.646 106.121L715.63 106.615C714.977 125.136 714.302 144.26 715.521 163.018C715.932 169.345 716.581 175.903 719.507 181.574C722.608 187.584 728.138 191.397 733.53 191.397H733.532C737.028 191.397 740.727 189.853 743.935 186.999L744.54 186.44C750.683 180.563 753.217 171.59 754.885 163.404C757.011 152.965 758.297 142.274 758.704 131.63V131.628L764.175 0.873901L651.408 -0.238403Z" fill="#76AF73" stroke="#76AF73"/>
<path d="M722.009 46.6331L722.008 46.6339C725.673 47.5222 728.767 50.5587 729.721 54.2074C729.948 55.0749 729.429 55.96 728.564 56.1873L728.563 56.1871C727.697 56.4122 726.809 55.8972 726.582 55.0288C725.925 52.5123 723.772 50.3998 721.243 49.7865L721.242 49.7863C718.72 49.1681 715.837 50.0672 714.099 52.0044C713.501 52.6732 712.473 52.7303 711.807 52.1301L711.808 52.1291C711.142 51.5308 711.086 50.5071 711.683 49.841L711.917 49.589C714.376 47.0334 718.214 45.8455 721.685 46.5613C721.79 46.583 721.899 46.606 722.009 46.6331Z" fill="#76AF73" stroke="#76AF73"/>
<circle cx="685.5" cy="61.4999" r="4.5" fill="#76AF73"/>
<circle cx="741.5" cy="78.4999" r="4.5" fill="#76AF73"/>
<path d="M743.976 125.375C743.186 125.375 742.526 125.994 742.484 126.792L740.316 167.691C740.272 168.516 740.905 169.22 741.731 169.264C742.549 169.309 743.26 168.675 743.304 167.849L745.472 126.95C745.516 126.125 744.882 125.421 744.058 125.377C744.03 125.376 744.003 125.375 743.976 125.375Z" fill="#76AF73"/>
<path d="M694.664 94.5019C694.029 94.5019 693.44 94.9099 693.238 95.5479C689.194 108.354 683.293 120.682 675.697 132.19C675.242 132.88 675.432 133.807 676.121 134.262C676.811 134.718 677.738 134.527 678.194 133.838C685.942 122.099 691.964 109.519 696.091 96.4489C696.34 95.6609 695.902 94.8209 695.115 94.5719C694.966 94.5249 694.814 94.5019 694.664 94.5019Z" fill="#76AF73"/>
<path d="M684.805 -0.932129C684.137 -0.932129 683.529 -0.482129 683.356 0.194871C677.396 23.5729 659.67 43.3839 637.096 51.8949C636.322 52.1869 635.932 53.0489 636.224 53.8229C636.515 54.5959 637.379 54.9859 638.152 54.6949C661.626 45.8449 680.059 25.2449 686.257 0.934871C686.461 0.133871 685.977 -0.680129 685.176 -0.885129C685.051 -0.917129 684.927 -0.932129 684.805 -0.932129Z" fill="#76AF73"/>
</g>
<path d="M202.529 231.472C199.76 222.454 188.925 216.844 179.963 219.789C171.001 222.734 165.604 233.676 168.723 242.58C160.837 238.189 149.528 242.128 146.076 250.468C142.624 258.808 147.841 269.587 156.523 272.055C152.214 275.347 149.153 280.41 148.83 285.823C148.507 291.236 151.159 296.864 155.844 299.594C160.529 302.324 167.089 301.681 170.792 297.72C170.988 307.707 180.034 316.687 190.022 316.809C200.01 316.931 209.273 308.175 209.713 298.196C215.795 300.555 222.377 302.232 228.818 301.196C235.259 300.16 241.502 295.893 243.299 289.622C244.713 284.686 243.19 279.239 240.215 275.054C237.24 270.869 232.957 267.79 228.497 265.246C233.887 263.055 238.245 258.458 240.147 252.959C244.735 239.693 234.455 227.934 221.451 226.212C214.782 225.328 207.785 227.273 202.529 231.472Z" fill="#FC83B1"/>
<path d="M210.519 288.823C211.023 288.481 211.523 288.116 212.005 287.738C223.391 278.812 225.391 262.287 216.465 250.901C207.993 240.095 192.465 237.66 181.114 245.357C180.61 245.699 180.11 246.064 179.628 246.442C174.112 250.766 170.611 256.979 169.769 263.936C168.927 270.894 170.844 277.763 175.168 283.278C183.64 294.084 199.168 296.52 210.519 288.823Z" fill="#FED562"/>
<path d="M199.389 273.359C200.658 272.499 201.697 271.294 202.331 269.901C202.489 269.554 202.336 269.145 201.989 268.987C201.642 268.829 201.233 268.983 201.075 269.329C200.269 271.1 198.68 272.505 196.823 273.087C194.967 273.669 192.86 273.423 191.188 272.428C190.86 272.233 190.437 272.339 190.242 272.669C190.047 272.997 190.155 273.42 190.482 273.615C192.486 274.807 195.011 275.102 197.236 274.404C198 274.164 198.726 273.809 199.389 273.359Z" fill="#FC83B1" stroke="#FC83B1"/>
<circle cx="2.5" cy="2.5" r="2.5" transform="matrix(-1 0 0 1 207.393 257.925)" fill="#FC83B1"/>
<circle cx="2.5" cy="2.5" r="2.5" transform="matrix(-1 0 0 1 186.393 264.925)" fill="#FC83B1"/>
<path d="M181.757 230.05C181.587 229.733 181.6 229.301 181.941 229.091C182.233 228.912 182.717 228.934 182.9 229.275C183.617 230.615 184.335 231.956 185.052 233.296C185.222 233.613 185.209 234.045 184.868 234.255C184.577 234.434 184.092 234.412 183.909 234.071C183.192 232.73 182.474 231.39 181.757 230.05Z" fill="#FED562"/>
<path d="M155.795 255.663C155.742 255.506 155.747 255.293 155.826 255.143C155.911 254.983 156.048 254.839 156.227 254.787C156.412 254.733 156.566 254.758 156.746 254.818C156.664 254.791 156.671 254.794 156.749 254.818C156.79 254.831 156.83 254.844 156.871 254.857C156.944 254.88 157.018 254.903 157.091 254.925C157.238 254.969 157.386 255.012 157.534 255.053C157.847 255.139 158.162 255.218 158.478 255.289C159.103 255.429 159.734 255.538 160.37 255.617C160.729 255.662 161 256.078 160.918 256.425C160.827 256.808 160.493 257.021 160.11 256.973C158.76 256.804 157.442 256.49 156.151 256.064C155.994 256.012 155.846 255.811 155.795 255.663Z" fill="#FED562"/>
<path d="M159.134 286.565C159.02 286.174 159.214 285.853 159.566 285.689C160.028 285.475 160.5 285.227 161.024 284.91C161.529 284.605 162.017 284.273 162.488 283.917C162.776 283.699 163.258 283.794 163.447 284.101C163.651 284.433 163.572 284.826 163.263 285.06C162.252 285.825 161.159 286.464 160.009 286.998C159.681 287.149 159.231 286.896 159.134 286.565Z" fill="#FED562"/>
<path d="M190.191 302.858C190.039 301.772 190.1 300.646 190.367 299.582C190.455 299.232 190.798 298.945 191.175 299.034C191.522 299.116 191.817 299.468 191.723 299.842C191.661 300.088 191.61 300.336 191.572 300.586C191.553 300.711 191.536 300.837 191.523 300.963C191.516 301.033 191.509 301.103 191.503 301.173C191.503 301.176 191.503 301.178 191.502 301.181C191.502 301.176 191.501 301.185 191.499 301.226C191.498 301.236 191.498 301.247 191.497 301.257C191.498 301.249 191.498 301.242 191.499 301.235C191.474 301.746 191.498 302.259 191.569 302.766C191.619 303.124 191.28 303.493 190.926 303.501C190.53 303.51 190.245 303.242 190.191 302.858Z" fill="#FED562"/>
<path d="M191.499 301.227C191.5 301.212 191.501 301.197 191.502 301.182C191.502 301.187 191.501 301.209 191.499 301.236C191.499 301.234 191.499 301.232 191.499 301.23C191.499 301.228 191.499 301.227 191.499 301.227Z" fill="#FED562"/>
<path d="M224.075 283.612C224.322 283.347 224.764 283.273 225.048 283.535C226.097 284.499 227.145 285.463 228.194 286.427C228.459 286.671 228.532 287.121 228.272 287.4C228.025 287.665 227.583 287.739 227.299 287.478C226.251 286.514 225.202 285.55 224.153 284.586C223.887 284.341 223.814 283.891 224.075 283.612Z" fill="#FED562"/>
<path d="M219.028 245.126L222.79 242.575C223.089 242.372 223.553 242.441 223.749 242.759C223.945 243.078 223.885 243.501 223.565 243.718L219.803 246.269C219.504 246.472 219.04 246.403 218.844 246.085C218.648 245.765 218.707 245.343 219.028 245.126Z" fill="#FED562"/>
<path d="M292.399 54.5493C290.712 47.7183 282.876 43.0903 276.079 44.9103C269.282 46.7303 264.809 54.6553 266.761 61.4153C261.071 57.8173 252.485 60.2814 249.568 66.3484C246.651 72.4154 250.088 80.6594 256.451 82.8574C253.105 85.1294 250.615 88.7723 250.15 92.7903C249.685 96.8083 251.426 101.109 254.801 103.337C258.176 105.565 263.088 105.358 266.011 102.563C265.742 110.008 272.105 117.072 279.538 117.578C286.971 118.084 294.233 111.949 294.975 104.535C299.406 106.545 304.238 108.067 309.077 107.563C313.917 107.059 318.743 104.141 320.342 99.5453C321.6 95.9283 320.692 91.8084 318.651 88.5684C316.609 85.3284 313.548 82.8573 310.332 80.7773C314.437 79.3693 317.874 76.1274 319.519 72.1114C323.487 62.4224 316.32 53.2384 306.708 51.4164C301.779 50.4834 296.488 51.6413 292.399 54.5493Z" fill="#76AF72"/>
<path d="M315.483 105.977C318.006 104.464 319.941 102.268 320.829 99.7154C322.044 96.2234 321.392 91.9544 319.087 88.2954C317.426 85.6584 314.986 83.2934 311.453 80.9024C315.273 79.2984 318.424 76.1464 319.996 72.3074C321.714 68.1134 321.495 63.6584 319.38 59.7624C316.929 55.2484 312.228 51.9394 306.804 50.9114C302.01 50.0024 296.788 51.0544 292.701 53.7204C291.727 50.6154 289.47 47.8454 286.417 46.0424C283.135 44.1034 279.318 43.5094 275.946 44.4134C272.574 45.3164 269.565 47.7384 267.691 51.0574C266.03 54.0004 265.433 57.3424 265.994 60.3994C263.333 59.1024 260.115 58.8644 256.983 59.7624C253.429 60.7824 250.558 63.1014 249.104 66.1254C247.65 69.1494 247.631 72.8404 249.054 76.2524C250.341 79.3384 252.619 81.7484 255.389 82.9914C252.194 85.4534 250.066 89.0334 249.637 92.7324C249.134 97.0754 251.095 101.51 254.516 103.768C257.83 105.955 262.437 105.848 265.501 103.653C265.842 110.98 272.129 117.591 279.501 118.093C287.006 118.605 294.257 112.688 295.396 105.289C300.696 107.612 305.074 108.499 309.128 108.077C311.445 107.835 313.624 107.092 315.483 105.977ZM309.164 80.6354L310.053 81.2104C313.914 83.7094 316.508 86.1344 318.215 88.8444C320.355 92.2404 320.969 96.1784 319.856 99.3774C318.224 104.069 313.24 106.613 309.024 107.052C304.999 107.471 300.602 106.523 295.188 104.067L294.535 103.771L294.464 104.485C293.743 111.678 286.787 117.556 279.574 117.065C272.362 116.574 266.265 109.806 266.527 102.583L266.573 101.316L265.657 102.192C262.988 104.744 258.345 105.059 255.087 102.908C251.982 100.859 250.204 96.8174 250.664 92.8504C251.092 89.1544 253.365 85.5784 256.743 83.2844L257.593 82.7074L256.622 82.3714C253.728 81.3714 251.317 78.9974 250.008 75.8564C248.699 72.7154 248.709 69.3314 250.036 66.5714C251.363 63.8114 254.001 61.6904 257.271 60.7524C260.542 59.8144 263.902 60.2144 266.49 61.8504L267.636 62.5754L267.26 61.2724C266.367 58.1824 266.852 54.6444 268.591 51.5644C270.33 48.4844 273.109 46.2404 276.216 45.4084C279.323 44.5764 282.851 45.1304 285.897 46.9294C288.943 48.7274 291.132 51.5504 291.903 54.6724L292.084 55.4074L292.701 54.9684C296.65 52.1574 301.853 51.0204 306.616 51.9224C311.739 52.8934 316.174 56.0084 318.479 60.2534C320.443 63.8724 320.645 68.0144 319.046 71.9174C317.456 75.7994 314.137 78.9294 310.169 80.2914L309.164 80.6354Z" fill="#76AF72"/>
<path d="M295.965 97.5904C296.355 97.3564 296.742 97.1055 297.117 96.8445C305.967 90.6705 308.144 78.4475 301.969 69.5975C296.109 61.1985 284.647 58.7395 275.874 63.9995C275.484 64.2335 275.097 64.4844 274.722 64.7454C270.435 67.7364 267.569 72.2174 266.653 77.3634C265.736 82.5094 266.879 87.7044 269.869 91.9914C275.73 100.391 287.192 102.85 295.965 97.5904Z" fill="#FC83B1"/>
<path d="M289.036 86.4732C290.017 85.8852 290.841 85.0312 291.371 84.0202C291.503 83.7682 291.406 83.4572 291.154 83.3252C290.902 83.1932 290.591 83.2902 290.459 83.5422C289.785 84.8272 288.544 85.8072 287.137 86.1642C285.73 86.5202 284.172 86.2492 282.968 85.4392C282.732 85.2802 282.413 85.3422 282.253 85.5792C282.094 85.8152 282.157 86.1352 282.393 86.2942C283.836 87.2652 285.704 87.5892 287.39 87.1622C287.968 87.0152 288.524 86.7812 289.036 86.4732Z" fill="#FDD266" stroke="#FDD266"/>
<circle cx="2" cy="2" r="2" transform="matrix(-1 0 0 1 295.43 73.2662)" fill="#FDD266"/>
<circle cx="2" cy="2" r="2" transform="matrix(-1 0 0 1 279.43 78.2662)" fill="#FDD266"/>
<path d="M276.989 52.6274C276.876 52.3844 276.903 52.0634 277.166 51.9214C277.39 51.8004 277.751 51.8364 277.872 52.0984C278.35 53.1264 278.829 54.1544 279.307 55.1824C279.42 55.4254 279.393 55.7464 279.13 55.8884C278.906 56.0094 278.545 55.9734 278.424 55.7114C277.946 54.6824 277.468 53.6554 276.989 52.6274Z" fill="#FED562"/>
<path d="M256.591 70.6214C256.558 70.5024 256.57 70.3434 256.636 70.2354C256.706 70.1194 256.814 70.0184 256.949 69.9874C257.089 69.9554 257.202 69.9804 257.335 70.0324C257.275 70.0094 257.28 70.0114 257.337 70.0324C257.367 70.0434 257.397 70.0554 257.426 70.0664C257.48 70.0864 257.533 70.1064 257.587 70.1264C257.695 70.1654 257.803 70.2034 257.911 70.2394C258.14 70.3164 258.371 70.3884 258.604 70.4544C259.064 70.5844 259.529 70.6914 259.999 70.7774C260.265 70.8264 260.449 71.1474 260.373 71.4024C260.29 71.6844 260.032 71.8284 259.749 71.7764C258.751 71.5944 257.783 71.3054 256.838 70.9354C256.725 70.8894 256.623 70.7344 256.591 70.6214Z" fill="#FED562"/>
<path d="M257.793 93.7734C257.725 93.4774 257.882 93.2464 258.151 93.1394C258.504 92.9994 258.865 92.8344 259.269 92.6194C259.658 92.4134 260.035 92.1864 260.4 91.9404C260.624 91.7904 260.979 91.8814 261.106 92.1174C261.244 92.3734 261.169 92.6624 260.929 92.8234C260.144 93.3514 259.304 93.7814 258.425 94.1314C258.177 94.2314 257.851 94.0234 257.793 93.7734Z" fill="#FED562"/>
<path d="M280.244 107.197C280.176 106.382 280.268 105.546 280.511 104.765C280.591 104.508 280.858 104.309 281.135 104.391C281.39 104.467 281.595 104.741 281.509 105.016C281.453 105.196 281.405 105.379 281.365 105.564C281.345 105.656 281.328 105.749 281.313 105.843C281.305 105.895 281.297 105.947 281.29 105.999C281.29 106.001 281.29 106.003 281.289 106.005C281.289 106.001 281.288 106.008 281.285 106.039C281.284 106.047 281.283 106.054 281.282 106.062C281.283 106.056 281.284 106.051 281.285 106.045C281.245 106.425 281.242 106.807 281.274 107.188C281.297 107.457 281.029 107.717 280.765 107.709C280.47 107.697 280.268 107.485 280.244 107.197Z" fill="#FED562"/>
<path d="M281.286 106.037C281.287 106.026 281.289 106.015 281.29 106.003C281.29 106.007 281.288 106.023 281.285 106.043C281.285 106.041 281.285 106.04 281.285 106.038L281.286 106.037Z" fill="#FED562"/>
<path d="M306.277 94.2734C306.472 94.0864 306.804 94.0494 307.005 94.2564C307.746 95.0174 308.486 95.7794 309.227 96.5414C309.414 96.7344 309.45 97.0724 309.244 97.2694C309.049 97.4564 308.717 97.4934 308.516 97.2864C307.775 96.5244 307.034 95.7634 306.294 95.0014C306.107 94.8084 306.071 94.4704 306.277 94.2734Z" fill="#FED562"/>
<path d="M304.118 65.4034L307.026 63.6604C307.257 63.5224 307.6 63.5924 307.732 63.8374C307.865 64.0834 307.803 64.3954 307.555 64.5434L304.647 66.2864C304.416 66.4254 304.073 66.3544 303.941 66.1094C303.809 65.8634 303.871 65.5514 304.118 65.4034Z" fill="#FED562"/>
<path d="M588.303 146.472C591.072 137.454 601.907 131.844 610.869 134.789C619.831 137.734 625.228 148.676 622.109 157.58C629.995 153.189 641.304 157.128 644.756 165.468C648.208 173.808 642.991 184.587 634.309 187.055C638.618 190.347 641.679 195.41 642.002 200.823C642.325 206.236 639.673 211.864 634.988 214.594C630.303 217.324 623.743 216.681 620.04 212.72C619.844 222.707 610.798 231.687 600.81 231.809C590.822 231.931 581.559 223.175 581.119 213.196C575.037 215.555 568.455 217.232 562.014 216.196C555.573 215.16 549.33 210.893 547.533 204.622C546.119 199.686 547.642 194.239 550.617 190.054C553.592 185.869 557.875 182.79 562.335 180.246C556.945 178.055 552.587 173.458 550.685 167.959C546.097 154.693 556.377 142.934 569.381 141.212C576.05 140.328 583.047 142.273 588.303 146.472Z" fill="#FC83B1"/>
<path d="M580.313 203.823C579.809 203.481 579.309 203.116 578.827 202.738C567.441 193.812 565.441 177.287 574.367 165.901C582.839 155.095 598.367 152.66 609.718 160.357C610.222 160.699 610.722 161.064 611.204 161.442C616.72 165.766 620.221 171.979 621.063 178.936C621.905 185.894 619.988 192.763 615.664 198.278C607.192 209.084 591.664 211.52 580.313 203.823Z" fill="#FED562"/>
<path d="M591.444 188.359C590.175 187.499 589.136 186.294 588.502 184.901C588.344 184.554 588.497 184.145 588.844 183.987C589.191 183.829 589.6 183.983 589.758 184.329C590.564 186.1 592.153 187.505 594.01 188.087C595.866 188.669 597.973 188.423 599.645 187.428C599.973 187.233 600.396 187.339 600.591 187.669C600.786 187.997 600.678 188.42 600.351 188.615C598.347 189.807 595.822 190.102 593.597 189.404C592.833 189.164 592.107 188.809 591.444 188.359Z" fill="#FC83B1" stroke="#FC83B1"/>
<circle cx="585.939" cy="175.425" r="2.5" fill="#FC83B1"/>
<circle cx="606.939" cy="182.425" r="2.5" fill="#FC83B1"/>
<path d="M609.075 145.05C609.245 144.733 609.232 144.301 608.891 144.091C608.599 143.912 608.115 143.934 607.932 144.275C607.215 145.615 606.497 146.956 605.78 148.296C605.61 148.613 605.623 149.045 605.964 149.255C606.255 149.434 606.74 149.412 606.923 149.071C607.64 147.73 608.358 146.39 609.075 145.05Z" fill="#FED562"/>
<path d="M635.037 170.663C635.09 170.506 635.085 170.293 635.006 170.143C634.921 169.983 634.784 169.839 634.605 169.787C634.42 169.733 634.266 169.758 634.086 169.818C634.168 169.791 634.161 169.794 634.083 169.818C634.042 169.831 634.002 169.844 633.961 169.857C633.888 169.88 633.814 169.903 633.741 169.925C633.594 169.969 633.446 170.012 633.298 170.053C632.985 170.139 632.67 170.218 632.354 170.289C631.729 170.429 631.098 170.538 630.462 170.617C630.103 170.662 629.832 171.078 629.914 171.425C630.005 171.808 630.339 172.021 630.722 171.973C632.072 171.804 633.39 171.49 634.681 171.064C634.838 171.012 634.986 170.811 635.037 170.663Z" fill="#FED562"/>
<path d="M631.698 201.565C631.812 201.174 631.618 200.853 631.266 200.689C630.804 200.475 630.332 200.227 629.808 199.91C629.303 199.605 628.815 199.273 628.344 198.917C628.056 198.699 627.574 198.794 627.385 199.101C627.181 199.433 627.26 199.826 627.569 200.06C628.58 200.825 629.673 201.464 630.823 201.998C631.151 202.149 631.601 201.896 631.698 201.565Z" fill="#FED562"/>
<path d="M600.641 217.858C600.793 216.772 600.732 215.646 600.465 214.582C600.377 214.232 600.034 213.945 599.657 214.034C599.31 214.116 599.015 214.468 599.109 214.842C599.171 215.088 599.222 215.336 599.26 215.586C599.279 215.711 599.296 215.837 599.309 215.963C599.316 216.033 599.323 216.103 599.329 216.173C599.329 216.176 599.329 216.178 599.33 216.181C599.33 216.176 599.331 216.185 599.333 216.226C599.334 216.236 599.334 216.247 599.335 216.257C599.334 216.249 599.334 216.242 599.333 216.235C599.358 216.746 599.334 217.259 599.263 217.766C599.213 218.124 599.552 218.493 599.906 218.501C600.302 218.51 600.587 218.242 600.641 217.858Z" fill="#FED562"/>
<path d="M599.333 216.227C599.332 216.212 599.331 216.197 599.33 216.182C599.33 216.187 599.331 216.209 599.333 216.236C599.333 216.234 599.333 216.232 599.333 216.23C599.333 216.228 599.333 216.227 599.333 216.227Z" fill="#FED562"/>
<path d="M566.757 198.612C566.51 198.347 566.068 198.273 565.784 198.535C564.735 199.499 563.687 200.463 562.638 201.427C562.373 201.671 562.3 202.121 562.56 202.4C562.807 202.665 563.249 202.739 563.533 202.478C564.581 201.514 565.63 200.55 566.679 199.586C566.945 199.341 567.018 198.891 566.757 198.612Z" fill="#FED562"/>
<path d="M571.804 160.126L568.042 157.575C567.743 157.372 567.279 157.441 567.083 157.759C566.887 158.078 566.947 158.501 567.267 158.718L571.029 161.269C571.328 161.472 571.792 161.403 571.988 161.085C572.184 160.765 572.125 160.343 571.804 160.126Z" fill="#FED562"/>
<path d="M508.031 387.549C509.718 380.718 517.554 376.09 524.351 377.91C531.148 379.73 535.621 387.655 533.669 394.415C539.359 390.817 547.945 393.281 550.862 399.348C553.779 405.415 550.342 413.659 543.979 415.857C547.325 418.129 549.815 421.772 550.28 425.79C550.745 429.808 549.004 434.109 545.629 436.337C542.254 438.565 537.342 438.358 534.419 435.563C534.688 443.008 528.325 450.072 520.892 450.578C513.459 451.084 506.197 444.949 505.455 437.535C501.024 439.545 496.192 441.067 491.353 440.563C486.513 440.059 481.687 437.141 480.088 432.545C478.83 428.928 479.738 424.808 481.779 421.568C483.821 418.328 486.882 415.857 490.098 413.777C485.993 412.369 482.556 409.127 480.911 405.111C476.943 395.422 484.11 386.238 493.722 384.416C498.651 383.483 503.942 384.641 508.031 387.549Z" fill="#76AF72"/>
<path d="M484.947 438.977C482.424 437.464 480.489 435.268 479.601 432.715C478.386 429.223 479.038 424.954 481.343 421.295C483.004 418.658 485.444 416.293 488.977 413.902C485.157 412.298 482.006 409.146 480.434 405.307C478.716 401.113 478.935 396.658 481.05 392.762C483.501 388.248 488.202 384.939 493.626 383.911C498.42 383.002 503.642 384.054 507.729 386.72C508.703 383.615 510.96 380.845 514.013 379.042C517.295 377.103 521.112 376.509 524.484 377.413C527.856 378.316 530.865 380.738 532.739 384.057C534.4 387 534.997 390.342 534.436 393.399C537.097 392.102 540.315 391.864 543.447 392.762C547.001 393.782 549.872 396.101 551.326 399.125C552.78 402.149 552.799 405.84 551.376 409.252C550.089 412.338 547.811 414.748 545.041 415.991C548.236 418.453 550.364 422.033 550.793 425.732C551.296 430.075 549.335 434.51 545.914 436.768C542.6 438.955 537.993 438.848 534.929 436.653C534.588 443.98 528.301 450.591 520.929 451.093C513.424 451.605 506.173 445.688 505.034 438.289C499.734 440.612 495.356 441.499 491.302 441.077C488.985 440.835 486.806 440.092 484.947 438.977ZM491.266 413.635L490.377 414.21C486.516 416.709 483.922 419.134 482.215 421.844C480.075 425.24 479.461 429.178 480.574 432.377C482.206 437.069 487.19 439.613 491.406 440.052C495.431 440.471 499.828 439.523 505.242 437.067L505.895 436.771L505.966 437.485C506.687 444.678 513.643 450.556 520.856 450.065C528.068 449.574 534.165 442.806 533.903 435.583L533.857 434.316L534.773 435.192C537.442 437.744 542.085 438.059 545.343 435.908C548.448 433.859 550.226 429.817 549.766 425.85C549.338 422.154 547.065 418.578 543.687 416.284L542.837 415.707L543.808 415.371C546.702 414.371 549.113 411.997 550.422 408.856C551.731 405.715 551.721 402.331 550.394 399.571C549.067 396.811 546.429 394.69 543.159 393.752C539.888 392.814 536.528 393.214 533.94 394.85L532.794 395.575L533.17 394.272C534.063 391.182 533.578 387.644 531.839 384.564C530.1 381.484 527.321 379.24 524.214 378.408C521.107 377.576 517.579 378.13 514.533 379.929C511.487 381.727 509.298 384.55 508.527 387.672L508.346 388.407L507.729 387.968C503.78 385.157 498.577 384.02 493.814 384.922C488.691 385.893 484.256 389.008 481.951 393.253C479.987 396.872 479.785 401.014 481.384 404.917C482.974 408.799 486.293 411.929 490.261 413.291L491.266 413.635Z" fill="#76AF72"/>
<path d="M504.465 430.59C504.075 430.356 503.688 430.105 503.313 429.844C494.463 423.67 492.286 411.447 498.461 402.597C504.321 394.198 515.783 391.739 524.556 396.999C524.946 397.233 525.333 397.484 525.708 397.745C529.995 400.736 532.861 405.217 533.777 410.363C534.694 415.509 533.551 420.704 530.561 424.991C524.7 433.391 513.238 435.85 504.465 430.59Z" fill="#FC83B1"/>
<path d="M511.394 419.473C510.413 418.885 509.589 418.031 509.059 417.02C508.927 416.768 509.024 416.457 509.276 416.325C509.528 416.193 509.839 416.29 509.971 416.542C510.645 417.827 511.886 418.807 513.293 419.164C514.7 419.52 516.258 419.249 517.462 418.439C517.698 418.28 518.017 418.342 518.177 418.579C518.336 418.815 518.273 419.135 518.037 419.294C516.594 420.265 514.726 420.589 513.04 420.162C512.462 420.015 511.906 419.781 511.394 419.473Z" fill="#FDD266" stroke="#FDD266"/>
<circle cx="507" cy="408.266" r="2" fill="#FDD266"/>
<circle cx="523" cy="413.266" r="2" fill="#FDD266"/>
<path d="M523.441 385.627C523.554 385.384 523.527 385.063 523.264 384.921C523.04 384.8 522.679 384.836 522.558 385.098C522.08 386.126 521.601 387.154 521.123 388.182C521.01 388.425 521.037 388.746 521.3 388.888C521.524 389.009 521.885 388.973 522.006 388.711C522.484 387.682 522.962 386.655 523.441 385.627Z" fill="#FED562"/>
<path d="M543.839 403.621C543.872 403.502 543.86 403.343 543.794 403.235C543.724 403.119 543.616 403.018 543.481 402.987C543.341 402.955 543.228 402.98 543.095 403.032C543.155 403.009 543.15 403.011 543.093 403.032C543.063 403.043 543.033 403.055 543.004 403.066C542.95 403.086 542.897 403.106 542.843 403.126C542.735 403.165 542.627 403.203 542.519 403.239C542.29 403.316 542.059 403.388 541.826 403.454C541.366 403.584 540.901 403.691 540.431 403.777C540.165 403.826 539.981 404.147 540.057 404.402C540.14 404.684 540.398 404.828 540.681 404.776C541.679 404.594 542.647 404.305 543.592 403.935C543.705 403.889 543.807 403.734 543.839 403.621Z" fill="#FED562"/>
<path d="M542.637 426.773C542.705 426.477 542.548 426.246 542.279 426.139C541.926 425.999 541.565 425.834 541.161 425.619C540.772 425.413 540.395 425.186 540.03 424.94C539.806 424.79 539.451 424.881 539.324 425.117C539.186 425.373 539.261 425.662 539.501 425.823C540.286 426.351 541.126 426.781 542.005 427.131C542.253 427.231 542.579 427.023 542.637 426.773Z" fill="#FED562"/>
<path d="M520.186 440.197C520.254 439.382 520.162 438.546 519.919 437.765C519.839 437.508 519.572 437.309 519.295 437.391C519.04 437.467 518.835 437.741 518.921 438.016C518.977 438.196 519.025 438.379 519.065 438.564C519.085 438.656 519.102 438.749 519.117 438.843C519.125 438.895 519.133 438.947 519.14 438.999C519.14 439.001 519.14 439.003 519.141 439.005C519.141 439.001 519.142 439.008 519.145 439.039C519.146 439.047 519.147 439.054 519.148 439.062C519.147 439.056 519.146 439.051 519.145 439.045C519.185 439.425 519.188 439.807 519.156 440.188C519.133 440.457 519.401 440.717 519.665 440.709C519.96 440.697 520.162 440.485 520.186 440.197Z" fill="#FED562"/>
<path d="M519.144 439.037C519.143 439.026 519.141 439.015 519.14 439.003C519.14 439.007 519.142 439.023 519.145 439.043C519.145 439.041 519.145 439.04 519.145 439.038L519.144 439.037Z" fill="#FED562"/>
<path d="M494.153 427.273C493.958 427.086 493.626 427.049 493.425 427.256C492.684 428.017 491.944 428.779 491.203 429.541C491.016 429.734 490.98 430.072 491.186 430.269C491.381 430.456 491.713 430.493 491.914 430.286C492.655 429.524 493.396 428.763 494.136 428.001C494.323 427.808 494.359 427.47 494.153 427.273Z" fill="#FED562"/>
<path d="M496.312 398.403L493.404 396.66C493.173 396.522 492.83 396.592 492.698 396.837C492.565 397.083 492.627 397.395 492.875 397.543L495.783 399.286C496.014 399.425 496.357 399.354 496.489 399.109C496.621 398.863 496.559 398.551 496.312 398.403Z" fill="#FED562"/>
<path d="M561.607 291.516C562.285 286.901 566.096 283.192 570.451 281.522C574.806 279.852 579.631 279.914 584.265 280.439C588.899 280.964 593.5 281.927 598.164 281.982C596.302 289.478 589.97 296.77 582.484 298.676C574.999 300.58 566.827 297.209 561.607 291.516Z" fill="#FCE4A9"/>
<path d="M562.36 292.192C562.161 292.192 561.971 292.072 561.894 291.875C561.793 291.617 561.92 291.327 562.177 291.227C568.771 288.644 575.704 287.271 582.784 287.145C583.016 287.123 583.288 287.36 583.293 287.636C583.298 287.912 583.078 288.14 582.802 288.145C575.841 288.269 569.025 289.619 562.542 292.159C562.482 292.181 562.421 292.192 562.36 292.192Z" fill="#76AF72" stroke="#76AF72"/>
<path d="M194.506 380.156C196.227 375.82 194.781 370.703 191.844 367.079C188.908 363.455 184.698 361.096 180.422 359.234C176.147 357.371 171.681 355.905 167.614 353.621C165.479 361.043 167.316 370.524 172.846 375.918C178.377 381.309 187.139 382.476 194.506 380.156Z" fill="#FCE4A9"/>
<path d="M193.516 380.365C193.689 380.464 193.913 380.455 194.078 380.323C194.295 380.15 194.33 379.836 194.157 379.621C189.738 374.087 184.421 369.431 178.352 365.782C178.162 365.647 177.808 365.716 177.666 365.953C177.523 366.189 177.6 366.497 177.837 366.639C183.803 370.227 189.031 374.804 193.375 380.245C193.416 380.294 193.464 380.334 193.516 380.365Z" fill="#76AF72" stroke="#76AF72"/>
<path d="M571.618 90.9353C570.732 88.3933 571.691 85.4774 573.472 83.4584C575.254 81.4404 577.739 80.1824 580.25 79.2124C582.762 78.2424 585.372 77.5064 587.773 76.2874C588.823 80.6204 587.532 86.0434 584.211 89.0184C580.892 91.9944 575.81 92.4533 571.618 90.9353Z" fill="#FCE4A9"/>
<path d="M572.184 91.0794C572.082 91.1324 571.953 91.1214 571.861 91.0414C571.741 90.9364 571.728 90.7544 571.833 90.6344C574.516 87.5514 577.697 84.9954 581.286 83.0394C581.399 82.9654 581.601 83.0144 581.677 83.1544C581.753 83.2944 581.702 83.4694 581.562 83.5454C578.034 85.4694 574.907 87.9814 572.269 91.0124C572.243 91.0414 572.215 91.0634 572.184 91.0794Z" fill="#76AF73" stroke="#76AF73"/>
<path d="M144.512 172.648C145.398 170.106 144.439 167.19 142.658 165.171C140.876 163.153 138.391 161.895 135.88 160.925C133.368 159.955 130.758 159.219 128.357 158C127.307 162.333 128.598 167.756 131.919 170.731C135.238 173.707 140.32 174.166 144.512 172.648Z" fill="#FCE4A9"/>
<path d="M143.946 172.792C144.048 172.845 144.177 172.834 144.269 172.754C144.389 172.649 144.402 172.467 144.297 172.347C141.614 169.264 138.433 166.708 134.844 164.752C134.731 164.678 134.529 164.727 134.453 164.867C134.377 165.007 134.428 165.182 134.568 165.258C138.096 167.182 141.223 169.694 143.861 172.725C143.887 172.754 143.915 172.776 143.946 172.792Z" fill="#76AF73" stroke="#76AF73"/>
</g>
<defs>
<filter id="filter0_f_53_2020" x="0" y="2.99994" width="759" height="504" filterUnits="userSpaceOnUse" color-interpolation-filters="sRGB">
<feFlood flood-opacity="0" result="BackgroundImageFix"/>
<feBlend mode="normal" in="SourceGraphic" in2="BackgroundImageFix" result="shape"/>
<feGaussianBlur stdDeviation="1" result="effect1_foregroundBlur_53_2020"/>
</filter>
</defs>
</svg>
